<svg width="232" height="71" viewBox="0 0 232 71" fill="none" xmlns="http://www.w3.org/2000/svg">
<path d="M89.3633 23.6626V70.4918" stroke="#E4AA17" stroke-width="2" stroke-miterlimit="10"></path>
<path d="M102.077 27.0722H98.1621V23.8916H109.605V27.0722H105.691V36.9807H102.072V27.0722H102.077Z" fill="#303030"></path>
<path d="M111.246 23.8916H114.864V28.7908H119.505V23.8916H123.123V36.9807H119.505V32.0081H114.864V36.9807H111.246V23.8916Z" fill="#303030"></path>
<path d="M125.301 23.8916H135.795V26.976H128.878V28.9604H135.141V31.8202H128.878V33.8963H135.886V36.9807H125.297V23.8916H125.301Z" fill="#303030"></path>
<path d="M142.449 30.4772V30.4405C142.449 26.6275 145.377 23.6348 149.324 23.6348C151.992 23.6348 153.705 24.7576 154.861 26.3662L152.138 28.479C151.394 27.5441 150.535 26.9437 149.288 26.9437C147.461 26.9437 146.177 28.4973 146.177 30.4039V30.4405C146.177 32.4021 147.461 33.9374 149.288 33.9374C150.649 33.9374 151.449 33.3003 152.234 32.3471L154.957 34.2903C153.728 35.9906 152.07 37.2463 149.178 37.2463C145.451 37.2463 142.449 34.3865 142.449 30.4772Z" fill="#303030"></path>
<path d="M160.647 23.7998H164.132L169.687 36.9851H165.809L164.859 34.6478H159.824L158.893 36.9851H155.092L160.647 23.7998ZM163.817 31.8201L162.364 28.0987L160.893 31.8201H163.822H163.817Z" fill="#303030"></path>
<path d="M171.962 27.0722H168.047V23.8916H179.49V27.0722H175.575V36.9807H171.962V27.0722Z" fill="#303030"></path>
<path d="M98.832 40.5874H109.27V43.768H102.45V45.9954H108.622V49.0064H102.45V53.6811H98.832V40.592V40.5874Z" fill="#303030"></path>
<path d="M114.324 40.4912H117.81L123.365 53.6765H119.487L118.536 51.3392H113.502L112.57 53.6765H108.77L114.324 40.4912ZM117.495 48.5115L116.042 44.7901L114.571 48.5115H117.499H117.495Z" fill="#303030"></path>
<path d="M124.631 40.5874H128.007L133.374 47.5078V40.5874H136.951V53.6765H133.781L128.208 46.4949V53.6765H124.631V40.5874Z" fill="#303030"></path>
<path d="M138.82 47.1686V47.1319C138.82 43.3189 141.749 40.3262 145.695 40.3262C148.363 40.3262 150.076 41.449 151.232 43.0576L148.509 45.1704C147.765 44.2355 146.906 43.6351 145.659 43.6351C143.832 43.6351 142.548 45.1887 142.548 47.0953V47.1319C142.548 49.0981 143.832 50.6288 145.659 50.6288C147.02 50.6288 147.82 49.9917 148.605 49.0385L151.328 50.9817C150.099 52.682 148.441 53.9377 145.549 53.9377C141.822 53.9377 138.82 51.0779 138.82 47.1686Z" fill="#303030"></path>
<path d="M153.135 40.5874H156.771V53.6765H153.135V40.5874Z" fill="#303030"></path>
<path d="M159.157 40.5876H169.65V43.672H162.734V45.6518H168.997V48.5116H162.734V50.5877H169.741V53.6721H159.152V40.583L159.157 40.5876Z" fill="#303030"></path>
<path d="M171.778 40.5874H177.95C179.946 40.5874 181.321 41.1099 182.198 42.0081C182.961 42.7552 183.354 43.768 183.354 45.0558V45.0925C183.354 47.0953 182.294 48.4198 180.668 49.1118L183.779 53.6765H179.603L176.977 49.7122H175.391V53.6765H171.773V40.5874H171.778ZM177.781 46.8707C179.009 46.8707 179.718 46.2703 179.718 45.3171V45.2804C179.718 44.2538 178.973 43.7268 177.758 43.7268H175.391V46.8707H177.776H177.781Z" fill="#303030"></path>
<path d="M184.379 51.7287L186.393 49.318C187.682 50.3446 189.116 50.89 190.624 50.89C191.592 50.89 192.117 50.5554 192.117 49.9917V49.955C192.117 49.4142 191.688 49.1118 189.92 48.7039C187.143 48.0668 185 47.2831 185 44.5883V44.5517C185 42.1227 186.919 40.3628 190.053 40.3628C192.273 40.3628 194.004 40.9586 195.42 42.0998L193.611 44.6617C192.419 43.8184 191.112 43.3692 189.957 43.3692C189.08 43.3692 188.65 43.7451 188.65 44.2125V44.2492C188.65 44.8496 189.098 45.1108 190.907 45.5233C193.908 46.1786 195.772 47.1502 195.772 49.5976V49.6342C195.772 52.3061 193.666 53.8964 190.496 53.8964C188.184 53.8964 185.987 53.1677 184.383 51.7287H184.379Z" fill="#303030"></path>
<path d="M197.072 45.991C198.319 45.8581 198.991 45.2439 198.936 44.2311H197.52V40.583H201.193V43.5574C201.193 46.3255 199.704 47.2788 197.374 47.3521L197.077 45.9864L197.072 45.991Z" fill="#303030"></path>
<path d="M102.41 57.187H105.896L111.451 70.3723H107.572L106.622 68.035H101.588L100.656 70.3723H96.8555L102.41 57.187ZM105.581 65.2073L104.128 61.4859L102.657 65.2073H105.585H105.581Z" fill="#303030"></path>
<path d="M111.77 68.4245L113.784 66.0138C115.072 67.0404 116.507 67.5858 118.014 67.5858C118.983 67.5858 119.504 67.2512 119.504 66.6875V66.6508C119.504 66.11 119.074 65.8076 117.306 65.3997C114.529 64.7626 112.386 63.9789 112.386 61.2841V61.2475C112.386 58.8185 114.305 57.0586 117.439 57.0586C119.654 57.0586 121.39 57.6544 122.806 58.7956L120.997 61.3575C119.805 60.5142 118.499 60.065 117.343 60.065C116.466 60.065 116.036 60.4409 116.036 60.9083V60.945C116.036 61.5454 116.484 61.8066 118.293 62.2191C121.294 62.8744 123.158 63.846 123.158 66.2934V66.33C123.158 69.0019 121.052 70.5922 117.882 70.5922C115.57 70.5922 113.373 69.8635 111.77 68.4245Z" fill="#303030"></path>
<path d="M123.739 68.4245L125.754 66.0138C127.042 67.0404 128.476 67.5858 129.984 67.5858C130.952 67.5858 131.473 67.2512 131.473 66.6875V66.6508C131.473 66.11 131.044 65.8076 129.271 65.3997C126.494 64.7626 124.351 63.9789 124.351 61.2841V61.2475C124.351 58.8185 126.27 57.0586 129.404 57.0586C131.624 57.0586 133.355 57.6544 134.771 58.7956L132.962 61.3575C131.77 60.5142 130.463 60.065 129.308 60.065C128.431 60.065 128.001 60.4409 128.001 60.9083V60.945C128.001 61.5454 128.449 61.8066 130.258 62.2191C133.259 62.8744 135.123 63.846 135.123 66.2934V66.33C135.123 69.0019 133.017 70.5922 129.847 70.5922C127.535 70.5922 125.338 69.8635 123.734 68.4245H123.739Z" fill="#303030"></path>
<path d="M136.434 63.86V63.8233C136.434 60.0653 139.453 57.0176 143.478 57.0176C147.502 57.0176 150.485 60.0286 150.485 63.7867V63.8233C150.485 67.5814 147.466 70.6291 143.441 70.6291C139.417 70.6291 136.434 67.6181 136.434 63.86ZM146.799 63.86V63.8233C146.799 61.9351 145.438 60.2898 143.446 60.2898C141.454 60.2898 140.148 61.8985 140.148 63.7867V63.8233C140.148 65.7115 141.509 67.3568 143.482 67.3568C145.456 67.3568 146.799 65.7482 146.799 63.86Z" fill="#303030"></path>
<path d="M151.926 63.86V63.8233C151.926 60.0103 154.854 57.0176 158.801 57.0176C161.469 57.0176 163.182 58.1404 164.338 59.749L161.615 61.8618C160.87 60.9269 160.012 60.3265 158.764 60.3265C156.937 60.3265 155.653 61.8801 155.653 63.7867V63.8233C155.653 65.7895 156.937 67.3202 158.764 67.3202C160.126 67.3202 160.925 66.6831 161.711 65.7299L164.434 67.6731C163.205 69.3734 161.546 70.6291 158.655 70.6291C154.927 70.6291 151.926 67.7693 151.926 63.86Z" fill="#303030"></path>
<path d="M166.055 57.2788H169.691V70.3679H166.055V57.2788Z" fill="#303030"></path>
<path d="M176.584 57.187H180.07L185.625 70.3723H181.746L180.796 68.035H175.762L174.83 70.3723H171.029L176.584 57.187ZM179.755 65.2073L178.302 61.4859L176.831 65.2073H179.759H179.755Z" fill="#303030"></path>
<path d="M188.294 60.4594H184.379V57.2788H195.822V60.4594H191.907V70.3679H188.294V60.4594Z" fill="#303030"></path>
<path d="M197.576 57.2788H201.212V70.3679H197.576V57.2788Z" fill="#303030"></path>
<path d="M203.148 63.86V63.8233C203.148 60.0653 206.168 57.0176 210.193 57.0176C214.217 57.0176 217.2 60.0286 217.2 63.7867V63.8233C217.2 67.5814 214.181 70.6291 210.156 70.6291C206.131 70.6291 203.148 67.6181 203.148 63.86ZM213.514 63.86V63.8233C213.514 61.9351 212.152 60.2898 210.161 60.2898C208.169 60.2898 206.862 61.8985 206.862 63.7867V63.8233C206.862 65.7115 208.224 67.3568 210.197 67.3568C212.171 67.3568 213.514 65.7482 213.514 63.86Z" fill="#303030"></path>
<path d="M219.087 57.2788H222.458L227.826 64.1992V57.2788H231.403V70.3679H228.232L222.659 63.1863V70.3679H219.082V57.2788H219.087Z" fill="#303030"></path>
<path d="M15.2441 71.0004C13.0651 71.0004 11.0414 70.6017 9.17297 69.8088C7.30457 69.016 5.69199 67.9298 4.33067 66.5503C2.97391 65.1708 1.90951 63.5484 1.14662 61.674C0.38373 59.7995 0 57.7967 0 55.6656V55.5786C0 53.4475 0.38373 51.4539 1.14662 49.5932C1.90951 47.7325 2.97391 46.1009 4.33067 44.6939C5.68742 43.2869 7.31828 42.1824 9.21409 41.3712C11.1099 40.56 13.2067 40.1567 15.4999 40.1567C16.8887 40.1567 18.1541 40.2713 19.3007 40.4959C20.4473 40.725 21.4889 41.0367 22.4208 41.4308C23.3527 41.8295 24.2161 42.3108 25.011 42.879C25.8013 43.4473 26.5413 44.0706 27.2174 44.7535L23.0558 49.5657C21.8954 48.5161 20.7123 47.6912 19.5108 47.0954C18.3094 46.4996 16.9572 46.2017 15.4543 46.2017C14.2071 46.2017 13.056 46.4446 11.9916 46.9258C10.9317 47.4071 10.0181 48.0762 9.25063 48.9286C8.48774 49.7811 7.89387 50.7664 7.46903 51.8892C7.04418 53.0121 6.83405 54.2128 6.83405 55.4869V55.574C6.83405 56.8526 7.04418 58.058 7.46903 59.1946C7.89387 60.3312 8.4786 61.3257 9.23236 62.1781C9.98154 63.0305 10.8906 63.7042 11.9504 64.2038C13.0103 64.6988 14.1797 64.9508 15.4543 64.9508C17.1536 64.9508 18.5881 64.6392 19.7621 64.0159C20.9361 63.3926 22.1056 62.5402 23.2659 61.4586L27.4276 65.6749C26.6647 66.4999 25.8698 67.2377 25.0475 67.8885C24.2252 68.5439 23.3299 69.103 22.3523 69.5705C21.3747 70.038 20.3057 70.3954 19.1454 70.6338C17.9851 70.8767 16.6831 70.9958 15.2396 70.9958L15.2441 71.0004Z" fill="#E4AA17"></path>
<path d="M30.5469 40.6701H56.5354L54.0229 46.6326H37.0886V52.9801H52.0083L49.5187 58.9426H37.0931V70.4872H30.556V40.6655L30.5469 40.6701Z" fill="#E4AA17"></path>
<path d="M61.6893 40.4546H67.7193L80.4601 70.4871H73.6215L70.9034 63.8005H58.3362L55.6181 70.4871H48.9531L61.6939 40.4546H61.6893ZM68.569 58.0075L64.6221 48.3374L60.6752 58.0075H68.5736H68.569Z" fill="#E4AA17"></path>
<path d="M62.7221 38.6168C62.9368 38.7864 63.1972 38.878 63.4713 38.878C64.2068 38.8872 65.696 39.0659 65.623 40.3675C65.623 40.4408 65.623 40.5737 65.5818 40.6287C64.3758 40.6287 61.7765 40.725 61.7765 40.725C61.7765 40.725 56.852 37.1686 54.4856 35.3445C53.7821 34.8037 53.2248 34.1025 52.8137 33.3097C52.2609 32.2418 51.4249 31.1007 51.2194 30.8028C50.2738 30.844 49.0221 30.624 47.5739 31.7973C46.1258 32.9705 44.0016 36.5819 43.6042 37.5169C43.4625 37.856 43.458 38.241 43.6133 38.5755C43.6818 38.7176 43.7686 38.8368 43.8737 38.878C44.2072 39.0201 44.7919 39.1026 45.1756 39.6021C45.4177 39.9184 45.4771 40.5096 45.3355 40.6837C44.3305 40.6929 43.0149 40.6929 42.2337 40.6929C42.1104 40.6379 41.818 40.4821 41.553 40.0054C40.4475 38.021 42.3799 34.1025 42.6585 33.3922C42.9235 32.7139 42.9189 31.7973 42.7134 31.0411C42.5261 30.349 42.156 29.6799 40.9181 29.1666C39.0405 28.3875 35.6555 28.0255 33.1247 28.7908C31.3065 32.9339 30.6122 32.5076 29.8675 34.3546C29.196 36.0136 30.8269 38.0622 31.4664 38.7726C31.6035 38.9284 31.7908 39.0293 31.9918 39.0613C32.4988 39.1393 33.5084 39.4005 33.5541 40.3079C33.5587 40.4317 33.5632 40.6287 33.5084 40.7112C32.6313 40.725 31.439 40.7158 30.9 40.7112C30.7081 40.7112 30.5208 40.6562 30.3563 40.5508H30.3518C30.1234 40.3812 28.0266 37.9523 26.8251 35.0787C25.6876 32.3564 25.144 30.262 25.144 30.262C25.144 30.262 20.8453 31.8019 19.1962 34.4004C18.5247 35.4637 18.6023 37.3656 18.7805 38.4885C18.8262 38.768 19.018 38.9972 19.2784 39.098C19.7215 39.2676 20.3839 39.648 20.4662 40.4179C20.489 40.615 20.4525 40.7433 20.4251 40.8945C19.8586 40.9037 18.1364 40.7204 17.6384 40.7204C17.6065 40.6654 17.5562 40.6379 17.4192 40.4408C16.4233 39.0522 16.6791 34.7075 17.2456 32.8514C17.6521 31.5315 17.9034 30.3674 19.5708 28.8412C20.1327 28.3279 20.7357 27.6084 21.1879 25.3902C21.7042 22.8558 21.8458 22.8558 22.9604 21.128C24.0751 19.4048 23.2848 18.7128 22.2249 17.6174C19.8906 15.5597 18.3145 12.6678 18.1272 9.50551C17.9399 6.83361 18.7348 4.01048 20.6123 2.04437C22.6452 -0.127981 25.6145 -0.586283 28.2458 0.751956C28.8443 1.05444 29.397 1.41649 29.9132 1.81521C30.7264 2.49808 29.799 3.69425 28.9356 3.08013C26.0714 0.811535 22.7731 1.30192 21.0555 4.59252C20.0687 6.50822 19.9728 8.84555 20.6032 10.8942C21.2245 12.9519 22.6178 14.7393 24.4131 15.8942C24.7374 16.105 25.0801 16.2929 25.4272 16.4625C25.6557 16.5496 25.8749 16.6229 26.0622 16.655C27.4647 17.04 34.6642 15.0555 47.7247 18.2545C51.4524 18.974 54.6592 16.4992 56.2124 14.996C57.1718 14.0656 58.1768 13.1857 59.2412 12.3791L60.735 11.2425C60.8903 11.1279 61.105 11.2562 61.073 11.4487L60.7167 13.6027C60.7167 13.6027 62.6902 14.4322 63.0099 15.3305C63.3297 16.2242 64.5403 17.5029 64.5403 17.5029C64.5403 17.5029 65.2392 18.3324 64.4763 19.1665C63.7134 19.996 63.7865 20.5506 62.311 20.5093C59.9173 20.4452 57.2814 23.2775 56.5962 26.1098C56.048 28.36 56.7743 34.1071 61.2969 37.4985L62.7313 38.626L62.7221 38.6168Z" fill="#E4AA17"></path>
</svg>