<svg width="190" height="47" viewBox="0 0 190 47" fill="none" xmlns="http://www.w3.org/2000/svg">
			<g clip-path="url(#clip0_3881_26984)">
				<path d="M185.603 23.5098V24.0772H184.518V26.8596H183.874V24.0772H182.788V23.5098H185.603Z" fill="#00855D"></path>
				<path d="M189.845 23.5098V26.8596H189.228V24.8094L188.207 26.8596H187.811L186.79 24.8003V26.8596H186.165V23.5098H186.845L188.005 25.7979L189.182 23.5098H189.845Z" fill="#00855D"></path>
				<path d="M14.8648 23.7015V39.8373C14.8648 42.1712 14.2852 43.9285 13.1259 45.1275C11.9667 46.3264 10.2555 46.9213 8.00139 46.9213C5.59091 46.9213 3.49325 46.3447 1.7084 45.1915L2.09481 43.4892C3.15284 44.1115 4.11887 44.5509 5.0021 44.8071C5.88532 45.0634 6.89735 45.1915 8.03819 45.1915C9.64823 45.1915 10.8719 44.7522 11.6999 43.8736C12.5279 42.9949 12.9419 41.7136 12.9419 40.0204V35.8835C12.4451 36.9726 11.7183 37.8146 10.7523 38.4004C9.78624 38.9862 8.627 39.279 7.26536 39.279C5.84852 39.279 4.58808 38.9404 3.49325 38.2723C2.39842 37.595 1.54279 36.6614 0.926375 35.4533C0.309957 34.2452 0.00634766 32.8632 0.00634766 31.2981C0.00634766 29.7147 0.309957 28.3235 0.926375 27.1063C1.54279 25.8981 2.38922 24.9646 3.49325 24.2964C4.58808 23.6375 5.84852 23.2988 7.26536 23.2988C8.6178 23.2988 9.77704 23.5734 10.7339 24.1317C11.6907 24.69 12.4175 25.5046 12.9143 26.5663V23.7015H14.8648ZM11.4607 35.8652C12.4175 34.7577 12.8959 33.2384 12.8959 31.3072C12.8959 29.3578 12.4175 27.8293 11.4607 26.7035C10.5039 25.5778 9.18822 25.0195 7.51377 25.0195C5.81172 25.0195 4.47768 25.5778 3.51165 26.7035C2.54562 27.8293 2.05801 29.3578 2.05801 31.3072C2.05801 33.2567 2.54562 34.776 3.51165 35.8835C4.47768 36.9818 5.81172 37.5401 7.51377 37.5401C9.18822 37.5309 10.5039 36.9818 11.4607 35.8652Z" fill="#008556"></path>
				<path d="M27.6347 23.4444L27.5335 25.2108C27.1286 25.1284 26.6318 25.0826 26.0522 25.0826C24.4146 25.0826 23.2001 25.6043 22.3905 26.6386C21.5809 27.6728 21.1853 28.9084 21.1853 30.3453V39.7815H19.2532V28.167C19.2532 26.5013 19.1704 25.0094 18.9956 23.7098H20.8633L21.1209 26.6935C21.5257 25.6043 22.1881 24.7715 23.1081 24.1949C24.019 23.6183 25.0586 23.3254 26.2178 23.3254C26.7514 23.3162 27.2298 23.362 27.6347 23.4444Z" fill="#008556"></path>
				<path d="M30.2474 31.4993V31.6C30.2474 33.76 30.7442 35.4166 31.747 36.5606C32.7499 37.7047 34.2035 38.2813 36.1172 38.2813C38.0492 38.2813 39.8249 37.6223 41.4349 36.2952L42.2077 37.8328C41.4993 38.4918 40.5977 39.0226 39.5029 39.4254C38.408 39.8189 37.2764 40.0203 36.1172 40.0203C33.6699 40.0203 31.7286 39.2789 30.3118 37.8054C28.8949 36.3318 28.1865 34.3 28.1865 31.7098C28.1865 30.0624 28.4993 28.6071 29.1342 27.3258C29.769 26.0536 30.6522 25.0651 31.793 24.3696C32.9339 23.674 34.2403 23.3262 35.7307 23.3262C37.856 23.3262 39.5213 24.0126 40.7173 25.3763C41.9133 26.7492 42.5113 28.6529 42.5113 31.0875V31.5085H30.2474V31.4993ZM32.115 26.255C31.1858 27.1428 30.6062 28.3875 30.3762 29.9892H40.6345C40.5057 28.3417 40.0181 27.0878 39.1808 26.2184C38.3436 25.3489 37.1936 24.9187 35.7307 24.9187C34.2495 24.9279 33.0443 25.3672 32.115 26.255Z" fill="#008556"></path>
				<path d="M59.4674 23.7022V39.7739H57.4986V36.6987C57.0294 37.7695 56.3117 38.5841 55.3549 39.1515C54.3981 39.719 53.2572 40.0027 51.9232 40.0027C50.4788 40.0027 49.2183 39.664 48.1327 38.9959C47.0471 38.3186 46.2098 37.3576 45.621 36.1037C45.0322 34.8499 44.7378 33.3946 44.7378 31.7197C44.7378 30.054 45.0414 28.5804 45.6394 27.3082C46.2374 26.036 47.0839 25.0476 48.1695 24.352C49.2551 23.6564 50.5064 23.3086 51.9232 23.3086C53.2388 23.3086 54.3705 23.5832 55.3273 24.1415C56.2841 24.6998 57.011 25.5143 57.5078 26.576V23.7022H59.4674ZM56.1093 36.5431C57.0294 35.3898 57.4986 33.7607 57.4986 31.6648C57.4986 29.5506 57.0386 27.9123 56.1093 26.7591C55.1893 25.6059 53.8737 25.0293 52.1716 25.0293C50.4696 25.0293 49.1539 25.6242 48.2063 26.814C47.2587 28.0038 46.7895 29.6421 46.7895 31.738C46.7895 33.8156 47.2587 35.4265 48.2063 36.5705C49.1539 37.7146 50.488 38.2912 52.2084 38.2912C53.8921 38.2729 55.1893 37.6963 56.1093 36.5431Z" fill="#008556"></path>
				<path d="M66.5979 25.2759V34.8403C66.5979 36.1216 66.8463 37.0094 67.3431 37.5036C67.8399 37.9979 68.5667 38.245 69.5328 38.245C70.1308 38.245 70.7196 38.1443 71.2716 37.9521V39.7185C70.5816 39.8924 69.8824 39.9748 69.1739 39.9748C67.7571 39.9748 66.6439 39.5812 65.8343 38.785C65.0246 37.9979 64.629 36.808 64.629 35.2247V25.2759H61.4365V23.7017H64.629V19.4367L66.5979 18.6953V23.7017H71.3728V25.2759H66.5979Z" fill="#008556"></path>
				<path d="M88.7704 24.3606C89.856 25.0562 90.7024 26.0355 91.3005 27.3168C91.8985 28.5982 92.2021 30.0626 92.2021 31.7283C92.2021 33.3941 91.9077 34.8493 91.3189 36.094C90.73 37.3388 89.8836 38.2998 88.7888 38.9862C87.6939 39.6727 86.4335 40.0113 85.0167 40.0113C83.6642 40.0113 82.505 39.7184 81.5482 39.1327C80.5913 38.5469 79.8737 37.6957 79.4045 36.5791V46.72H77.4725V28.168C77.4725 26.5023 77.3896 25.0104 77.2148 23.7108H79.0825L79.3401 26.8592C79.8093 25.7243 80.5361 24.8548 81.5206 24.2416C82.4958 23.6284 83.6642 23.3263 85.0167 23.3263C86.4335 23.3172 87.6848 23.665 88.7704 24.3606ZM88.7244 36.5517C89.672 35.4076 90.1412 33.7968 90.1412 31.7192C90.1412 29.6232 89.672 27.985 88.7244 26.7951C87.7768 25.6053 86.4703 25.0104 84.7867 25.0104C83.0662 25.0104 81.7414 25.587 80.8213 26.7402C79.8921 27.8934 79.4321 29.5317 79.4321 31.6459C79.4321 33.7419 79.8921 35.371 80.8213 36.5242C81.7414 37.6774 83.057 38.254 84.7591 38.254C86.4519 38.2723 87.7768 37.6957 88.7244 36.5517Z" fill="#008556"></path>
				<path d="M96.5907 31.4993V31.6C96.5907 33.76 97.0875 35.4166 98.0904 36.5606C99.0932 37.7047 100.547 38.2813 102.46 38.2813C104.393 38.2813 106.168 37.6223 107.787 36.2952L108.56 37.8328C107.852 38.4918 106.95 39.0226 105.855 39.4254C104.761 39.8189 103.629 40.0203 102.47 40.0203C100.022 40.0203 98.0812 39.2789 96.6643 37.8054C95.2475 36.3318 94.5391 34.3 94.5391 31.7098C94.5391 30.0624 94.8519 28.6071 95.4867 27.3258C96.1215 26.0536 97.0047 25.0651 98.1456 24.3696C99.2864 23.674 100.593 23.3262 102.083 23.3262C104.209 23.3262 105.874 24.0126 107.07 25.3763C108.266 26.7492 108.864 28.6529 108.864 31.0875V31.5085H96.5907V31.4993ZM98.4584 26.255C97.5384 27.1428 96.9495 28.3875 96.7195 29.9892H106.978C106.849 28.3417 106.361 27.0878 105.524 26.2184C104.687 25.3489 103.537 24.9187 102.074 24.9187C100.593 24.9279 99.3876 25.3672 98.4584 26.255Z" fill="#008556"></path>
				<path d="M114.817 25.2759V34.8403C114.817 36.1216 115.065 37.0094 115.562 37.5036C116.059 37.9979 116.785 38.245 117.752 38.245C118.35 38.245 118.938 38.1443 119.49 37.9521V39.7185C118.8 39.8924 118.101 39.9748 117.393 39.9748C115.976 39.9748 114.863 39.5812 114.053 38.785C113.243 37.9979 112.848 36.808 112.848 35.2247V25.2759H109.655V23.7017H112.848V19.4367L114.817 18.6953V23.7017H119.592V25.2759H114.817Z" fill="#008556"></path>
				<path d="M128.231 38.9782C127.09 38.2918 126.207 37.3216 125.59 36.0769C124.965 34.823 124.652 33.3769 124.652 31.7295C124.652 30.0637 124.965 28.5902 125.59 27.318C126.216 26.0458 127.108 25.0573 128.268 24.3617C129.427 23.6662 130.77 23.3184 132.297 23.3184C133.392 23.3184 134.441 23.5106 135.444 23.8767C136.447 24.2428 137.265 24.7736 137.909 25.4326L137.137 26.9702C136.299 26.2838 135.499 25.7895 134.735 25.4783C133.972 25.1672 133.181 25.0116 132.362 25.0116C130.623 25.0116 129.243 25.6065 128.231 26.7963C127.219 27.9861 126.713 29.6244 126.713 31.7203C126.713 33.7705 127.21 35.3813 128.212 36.5345C129.215 37.6877 130.595 38.2643 132.352 38.2643C133.171 38.2643 133.963 38.1087 134.726 37.7976C135.49 37.4864 136.29 37.0013 137.127 36.3423L137.9 37.8525C137.21 38.5114 136.355 39.0423 135.333 39.4267C134.312 39.8111 133.273 40.0033 132.224 40.0033C130.706 40.0033 129.372 39.6647 128.231 38.9782Z" fill="#008556"></path>
				<path d="M154.221 23.7022V39.7739H152.252V36.6987C151.783 37.7695 151.066 38.5841 150.109 39.1515C149.152 39.719 148.011 40.0027 146.677 40.0027C145.233 40.0027 143.972 39.664 142.887 38.9959C141.801 38.3186 140.964 37.3576 140.375 36.1037C139.786 34.8499 139.492 33.3946 139.492 31.7197C139.492 30.054 139.795 28.5804 140.393 27.3082C140.991 26.036 141.838 25.0476 142.923 24.352C144.009 23.6564 145.26 23.3086 146.677 23.3086C147.984 23.3086 149.124 23.5832 150.081 24.1415C151.038 24.6998 151.765 25.5143 152.262 26.576V23.7022H154.221ZM150.872 36.5431C151.792 35.3898 152.262 33.7607 152.262 31.6648C152.262 29.5506 151.802 27.9123 150.872 26.7591C149.943 25.6059 148.637 25.0293 146.935 25.0293C145.233 25.0293 143.917 25.6242 142.969 26.814C142.022 28.0038 141.553 29.6421 141.553 31.738C141.553 33.8156 142.022 35.4265 142.969 36.5705C143.917 37.7146 145.251 38.2912 146.972 38.2912C148.646 38.2729 149.943 37.6963 150.872 36.5431Z" fill="#008556"></path>
				<path d="M167 23.4444L166.899 25.2108C166.494 25.1284 165.997 25.0826 165.418 25.0826C163.78 25.0826 162.566 25.6043 161.756 26.6386C160.947 27.6728 160.542 28.9084 160.542 30.3453V39.7815H158.61V28.167C158.61 26.5013 158.527 25.0094 158.352 23.7098H160.22L160.477 26.6935C160.882 25.6043 161.545 24.7715 162.465 24.1949C163.385 23.6183 164.415 23.3254 165.574 23.3254C166.117 23.3162 166.586 23.362 167 23.4444Z" fill="#008556"></path>
				<path d="M169.614 31.4993V31.6C169.614 33.76 170.11 35.4166 171.113 36.5606C172.116 37.7047 173.57 38.2813 175.483 38.2813C177.415 38.2813 179.191 37.6223 180.801 36.2952L181.574 37.8328C180.866 38.4918 179.964 39.0226 178.869 39.4254C177.774 39.8189 176.643 40.0203 175.483 40.0203C173.027 40.0203 171.095 39.2789 169.678 37.8054C168.261 36.3318 167.553 34.3 167.553 31.7098C167.553 30.0624 167.866 28.6071 168.5 27.3258C169.135 26.0536 170.018 25.0651 171.159 24.3696C172.3 23.674 173.616 23.3262 175.097 23.3262C177.222 23.3262 178.887 24.0126 180.084 25.3763C181.28 26.7492 181.878 28.6529 181.878 31.0875V31.5085H169.614V31.4993ZM171.481 26.255C170.561 27.1428 169.972 28.3875 169.742 29.9892H180.001C179.872 28.3417 179.384 27.0878 178.547 26.2184C177.71 25.3489 176.56 24.9187 175.097 24.9187C173.607 24.9279 172.401 25.3672 171.481 26.255Z" fill="#008556"></path>
				<path d="M1.17432 7.82446C1.17432 5.5638 2.93157 3.83398 5.21324 3.83398C6.99809 3.83398 8.36893 4.8133 8.96695 6.25939L7.15449 6.98243C6.84169 6.15871 6.12406 5.66448 5.24084 5.66448C4.054 5.66448 3.12477 6.63464 3.12477 7.82446C3.12477 8.98682 4.0632 9.95698 5.25004 9.95698C6.16087 9.95698 6.85089 9.39868 7.1637 8.62072L9.00375 9.37123C8.35053 10.7899 7.06249 11.8149 5.22244 11.8149C2.91317 11.8149 1.17432 10.0577 1.17432 7.82446Z" fill="#021660"></path>
				<path d="M9.70264 7.82446C9.70264 5.60956 11.4599 3.83398 13.7692 3.83398C16.0692 3.83398 17.8541 5.60956 17.8541 7.82446C17.8541 10.0302 16.0968 11.8149 13.7692 11.8149C11.4599 11.8149 9.70264 10.0302 9.70264 7.82446ZM15.9036 7.80615C15.9036 6.61633 14.9652 5.66448 13.7876 5.66448C12.6007 5.66448 11.6715 6.61633 11.6715 7.80615C11.6715 8.99598 12.6007 9.94783 13.7876 9.94783C14.9652 9.95698 15.9036 9.00513 15.9036 7.80615Z" fill="#021660"></path>
				<path d="M17.79 3.98828H19.8785L21.7738 9.15942L23.6874 3.98828H25.7299L22.703 11.658H20.7433L17.79 3.98828Z" fill="#021660"></path>
				<path d="M25.8677 7.84276C25.8677 5.60956 27.6065 3.83398 29.9066 3.83398C32.2159 3.83398 33.8903 5.49973 33.8903 7.76954V8.51089H27.7629C28.0205 9.50851 28.8302 10.1309 29.9802 10.1309C30.891 10.1309 31.5074 9.73732 31.8939 9.1058L33.5039 10.0394C32.7311 11.1193 31.6454 11.8149 29.9434 11.8149C27.4593 11.8149 25.8677 10.0668 25.8677 7.84276ZM27.8181 6.97328H31.9307C31.673 6.02142 30.9278 5.49973 29.9066 5.49973C28.9038 5.49058 28.1309 6.07634 27.8181 6.97328Z" fill="#021660"></path>
				<path d="M34.4058 3.98815H35.8318V2.32241L37.7731 1.1875V3.98815H39.7971V5.71797H37.7731V8.87557C37.7731 9.68099 38.1135 9.97387 38.6195 9.97387C38.8863 9.97387 39.1071 9.89149 39.3371 9.69014L40.2387 11.2278C39.7419 11.5939 39.1071 11.8135 38.3987 11.8135C36.7886 11.8135 35.841 11.0447 35.841 8.95794V5.73628H34.415V3.98815H34.4058Z" fill="#021660"></path>
				<path d="M41.5174 3.98885H43.4587V5.16952C43.8267 4.26342 44.5995 3.85156 45.5839 3.85156C46.0992 3.85156 46.5592 3.9797 46.8812 4.15359L46.1636 6.08476C45.952 5.92917 45.5747 5.81934 45.1331 5.81934C44.1211 5.81934 43.4587 6.33188 43.4587 7.62238V11.6678H41.499V3.98885H41.5174Z" fill="#021660"></path>
				<path d="M47.5347 8.5927V3.98901H49.5495V8.31812C49.5495 9.39811 50.0647 10.0662 51.1228 10.0662C52.052 10.0662 52.7328 9.39812 52.7328 8.20829V3.98901L54.7293 3.9707V11.6405L52.7604 11.6588V10.6886C52.2636 11.3842 51.4724 11.8144 50.534 11.8144C48.6295 11.8144 47.5347 10.6062 47.5347 8.5927Z" fill="#021660"></path>
				<path d="M55.9619 9.90899L57.8572 9.16764C58.1976 9.84492 58.814 10.2019 59.6236 10.2019C60.424 10.2019 60.8473 9.81746 60.8473 9.35984C60.8473 8.80154 60.0192 8.67341 59.0348 8.4812C57.7376 8.21578 56.2931 7.81307 56.2931 6.19309C56.2931 4.90259 57.5536 3.77684 59.4488 3.79514C61.0773 3.79514 62.0525 4.40836 62.7609 5.43343L60.9577 6.15648C60.6448 5.64394 60.1572 5.35106 59.4396 5.35106C58.6668 5.35106 58.2988 5.66224 58.2988 6.09241C58.2988 6.57749 58.9244 6.70563 60.056 6.94359C61.3441 7.19986 62.8529 7.63918 62.8529 9.28662C62.8529 10.4764 61.7857 11.831 59.5408 11.8127C57.7284 11.8127 56.5783 11.1354 55.9619 9.90899Z" fill="#021660"></path>
				<path d="M73.4609 7.89504L66.5146 3.99609V11.8031L73.4609 7.89504Z" fill="#021660"></path>
				<path d="M73.4609 7.89453L66.5146 11.8026L73.4609 15.7016L80.4163 11.8026L73.4609 7.89453Z" fill="#27BDBE"></path>
				<path d="M73.4609 0.0976562L66.5146 3.99661L73.4609 7.89556L80.4163 3.99661L73.4609 0.0976562Z" fill="#ED3030"></path>
			</g>
			<defs>
				<clipPath id="clip0_3881_26984">
				<rect width="190" height="47" fill="white"></rect>
				</clipPath>
			</defs>
		</svg>